<?xml version="1.0" standalone="no"?>
<!DOCTYPE svg PUBLIC "-//W3C//DTD SVG 20010904//EN"
 "http://www.w3.org/TR/2001/REC-SVG-20010904/DTD/svg10.dtd">
<svg version="1.0" xmlns="http://www.w3.org/2000/svg"
 width="500.000000pt" height="500.000000pt" viewBox="0 0 500.000000 500.000000"
 preserveAspectRatio="xMidYMid meet">

<g transform="translate(0.000000,500.000000) scale(0.100000,-0.100000)"
fill="#5865F2" stroke="none">
<path d="M960 3994 c-259 -26 -491 -179 -663 -440 -191 -288 -289 -647 -289
-1059 0 -245 31 -444 103 -659 78 -234 191 -429 334 -572 132 -133 274 -214
430 -245 105 -21 3159 -21 3255 0 435 96 768 576 850 1226 7 50 12 164 12 255
0 410 -99 768 -294 1060 -144 217 -333 360 -558 422 -35 9 -399 12 -1595 14
-852 0 -1566 0 -1585 -2z m612 -1131 c85 -40 151 -106 191 -191 30 -62 32 -75
32 -172 0 -97 -2 -110 -31 -170 -40 -85 -108 -154 -192 -193 -62 -30 -75 -32
-172 -32 -97 0 -110 2 -172 32 -83 39 -150 107 -192 193 -29 60 -31 73 -31
170 0 93 3 111 27 163 51 109 110 165 225 213 50 21 71 24 153 22 83 -3 104
-7 162 -35z m2198 1 c86 -40 153 -107 193 -192 30 -62 32 -75 32 -172 0 -97
-2 -110 -32 -172 -40 -85 -106 -151 -191 -191 -62 -30 -75 -32 -172 -32 -97 0
-110 2 -172 32 -84 39 -152 108 -192 193 -29 60 -31 73 -31 170 0 97 2 110 32
172 71 151 204 230 378 225 76 -2 100 -7 155 -33z"/>
</g>
</svg>
